<svg xmlns="http://www.w3.org/2000/svg" viewBox="0 0 96 96"><circle cx="48" cy="48" r="47.5" fill="#0b1829"></circle><path d="M69.5 24a2.5 2.5 0 0 0-1.8.7l-.1.2L48 46 24.7 71.3a2.5 2.5 0 0 0 1.8.8h43a2.5 2.5 0 0 0 2.5-2.5v-43a2.5 2.5 0 0 0-2.5-2.5z" fill="#0d9bf2"></path><path d="M48 46L28.4 25l-.1-.2a2.5 2.5 0 0 0-1.8-.7 2.5 2.5 0 0 0-2.5 2.5v43a2.5 2.5 0 0 0 2.5 2.5h43a2.5 2.5 0 0 0 1.8-.8z" fill="#fff"></path><path d="M48 46L24.7 71.3a2.5 2.5 0 0 0 1.8.8h43a2.5 2.5 0 0 0 1.8-.8L48 46z" fill="#0d9bf2" opacity=".3"></path></svg>